<?xml version="1.0" encoding="utf-8"?>
<!-- Generator: Adobe Illustrator 21.1.0, SVG Export Plug-In . SVG Version: 6.00 Build 0)  -->
<svg version="1.1" id="Layer_1" xmlns="http://www.w3.org/2000/svg" xmlns:xlink="http://www.w3.org/1999/xlink" x="0px" y="0px"
	 viewBox="0 0 756.6 111.2" style="enable-background:new 0 0 756.6 111.2;" xml:space="preserve">
<style type="text/css">
	.st0{fill:#7A121B;}
	.st1{fill:#231F20;}
	.st2{fill:none;}
</style>
<polygon class="st0" points="150.9,80.5 124.4,36.5 131.7,36.5 131.7,13.5 87.6,13.5 87.6,36.5 94.9,36.5 84.8,53.3 74.6,36.5 
	81.9,36.5 81.9,13.5 37.8,13.5 37.8,36.5 45.1,36.5 18.6,80.5 9.1,80.5 9.1,103.5 54.2,103.5 54.2,80.5 46.1,80.5 59.9,57.6 
	65.2,66.5 60.1,66.5 60.1,89.4 109.4,89.4 109.4,66.5 104.3,66.5 109.7,57.6 123.5,80.5 115.4,80.5 115.4,103.5 160.4,103.5 
	160.4,80.5 150.9,80.5 "/>
<path class="st1" d="M726.4,14.1l0.2,7.1h-0.9c-0.9-4.5-2-5.3-7.9-5.3v21.1c0,2.5,1.3,3.6,3.6,3.6v1h-11.1v-1c2.3,0,3.6-1.1,3.6-3.6
	V15.8c-6,0-7.1,0.7-7.9,5.3h-0.9l0.2-7.1H726.4L726.4,14.1z"/>
<path class="st1" d="M689.8,40.3c-5.1,0-8.1-4.9-8.1-12.6c0-7.7,2.9-12.6,8.1-12.6c5.1,0,8.1,4.9,8.1,12.6
	C697.9,35.4,694.9,40.3,689.8,40.3L689.8,40.3z M689.8,13.5c-6.8,0-12.3,5.6-12.3,14.2c0,8.6,5.5,14.2,12.3,14.2
	c6.8,0,12.3-5.6,12.3-14.2C702,19.1,696.6,13.5,689.8,13.5L689.8,13.5z"/>
<path class="st1" d="M732.7,30.6c1.9-5,4.1-11,4.1-11s2.2,6,4,11H732.7L732.7,30.6z M747.9,38.1c-0.5-1.3-9.7-24.4-9.7-24.4h-0.9
	c0,0-8.1,21.2-9.1,23.7c-1,2.5-2.2,3.1-3.2,3.1v1h7.5v-1c-1.1,0-2.3-0.8-2.3-2c0-0.4,0-0.8,0.1-1c0.1-0.2,0.8-2.3,1.8-4.9h9.5
	c1,2.6,1.7,4.7,1.7,4.8c0.1,0.4,0.3,0.8,0.3,1.2c0,1.1-0.9,2-2.5,2v1h9.6v-1C749.6,40.5,748.4,39.4,747.9,38.1L747.9,38.1z"/>
<path class="st1" d="M650.2,34.4c-1.2,2.9-2.8,5.3-7.1,5.3c-0.9,0-2.9,0-4.4,0c-1.6,0-2.3-0.6-2.3-1.9c0-0.5,0-5,0-9.8
	c1.1,0,4.3,0,5.9,0c2.3,0,3.5,1.3,3.9,3.7h0.9v-9.5h-1c-0.1,2.6-1.5,3.9-3.6,3.9c-1.7,0-5.1,0-6.1,0c0-4.5,0-8.7,0-9.2
	c0-1,0.6-1.2,1.5-1.2c0.9,0,2.8,0,5.3,0c3.3,0,4.4,1.4,5.1,4.4h0.9l-0.2-6.2h-19.7v1c2.3,0,3.3,1.1,3.3,3.6v18.3
	c0,2.5-1,3.6-3.3,3.6v1h20.3l1.8-7.1H650.2L650.2,34.4z"/>
<path class="st1" d="M671.1,13.5l0.8,9.1h-1c-1.4-4.5-3.6-7.2-6.9-7.2c-2.4,0-3.7,1.6-3.7,3.7c0,2.4,1.8,3.8,4,5.3
	c2.2,1.5,3.7,2.5,4.4,3c2.1,1.4,4,4,4,6.9c0,4.5-3.4,7.8-7.8,7.8c-2.7,0-4.4-1.4-5.8-1.4c-0.7,0-1.1,0.8-1.3,1.4h-0.9l-1.1-9.1h1
	c1.7,4.7,4.1,7.4,7.6,7.4c2.6,0,4.5-1.8,4.5-4.6c0-2.6-1.4-3.9-3-5c-1.8-1.3-4.1-2.8-5.4-3.8c-2.1-1.4-3.4-3.4-3.4-6.6
	c0-3.8,2.5-6.9,6.8-6.9c1.8,0,3.9,1.2,5.1,1.2c0.8,0,1.2-0.6,1.3-1.2H671.1L671.1,13.5z"/>
<path class="st1" d="M616.6,14.1v1c2.1,0,3.4,1.6,3.4,4.1c0,1.7,0,9.6,0,14.4l-14.3-19.6h-6.2v1c1.2,0,2.2,0.6,2.7,1.2
	c0.1,0.1,0.3,0.5,0.8,1.1c0,3,0,16,0,18.4c0,3.1-1.1,4.8-3.6,4.8v1h8.8v-1c-2.1,0-3.4-1.4-3.4-3.9c0-2,0-12.8,0-16.8
	c5.2,7,16.4,22.2,16.4,22.2h0.6c0,0,0-19.3,0-22.1c0-3.5,1.4-4.8,3.6-4.8v-1H616.6L616.6,14.1z"/>
<path class="st1" d="M586.1,14.1v1c2.1,0,3.4,1.6,3.4,4.1c0,1.7,0,9.6,0,14.4l-14.3-19.6h-6.2v1c1.2,0,2.2,0.6,2.7,1.2
	c0.1,0.1,0.3,0.5,0.8,1.1c0,3,0,16,0,18.4c0,3.1-1.1,4.8-3.6,4.8v1h8.8v-1c-2.1,0-3.4-1.4-3.4-3.9c0-2,0-12.8,0-16.8
	c5.2,7,16.4,22.2,16.4,22.2h0.6c0,0,0-19.3,0-22.1c0-3.5,1.4-4.8,3.6-4.8v-1H586.1L586.1,14.1z"/>
<path class="st1" d="M549.4,6.1v-1h-8.5l-11,29.7L518.7,5.1h-8.6v1c3.6,0,4.6,2,4.6,5.6c0,3.6,0,21.6,0,22.3c0,5.2-1.4,6.5-4.7,6.5
	v1h11.2v-1c-3.1,0-4.6-1.4-4.6-6.5c0-5.1,0-23.3,0-23.3l11.5,30.9h1.1L541,10.1c0,0,0,23,0,23.9c0,5.2-1.2,6.5-4.4,6.5v1h12.8v-1
	c-3.1,0-4.3-1.4-4.3-6.5c0-2,0-19.8,0-22.8C545,7.1,547.2,6.1,549.4,6.1L549.4,6.1z"/>
<path class="st1" d="M559.8,18.6c0-2.5,1.3-3.6,3.6-3.6v-1h-11.1v1c2.3,0,3.6,1.1,3.6,3.6v18.3c0,2.5-1.3,3.6-3.6,3.6v1h11.1v-1
	c-2.3,0-3.6-1.1-3.6-3.6V18.6L559.8,18.6z"/>
<path class="st1" d="M458.7,40.4c-5.1,0-8.1-4.9-8.1-12.6c0-7.7,2.9-12.6,8.1-12.6c5.1,0,8.1,4.9,8.1,12.6
	C466.7,35.4,463.8,40.4,458.7,40.4L458.7,40.4z M458.7,13.6c-6.8,0-12.3,5.6-12.3,14.2c0,8.6,5.5,14.2,12.3,14.2
	c6.8,0,12.3-5.6,12.3-14.2C470.9,19.1,465.4,13.6,458.7,13.6L458.7,13.6z"/>
<path class="st1" d="M494.7,14.1h-19.9v1c2.3,0,3.3,1.1,3.3,3.6v18.3c0,2.5-1,3.6-3.3,3.6v1h10.6v-1c-2.2,0-3.5-1.1-3.5-3.6
	c0-0.5,0-4.5,0-8.8c1,0,4.1,0,5.7,0c2.3,0,3.5,1.3,3.9,3.7h0.9v-9.5h-1c-0.1,2.6-1.5,3.9-3.6,3.9c-1.7,0-5,0-5.9,0
	c0-4.5,0-8.7,0-9.2c0-1,0.6-1.2,1.5-1.2c0.9,0,3,0,5.5,0c3.3,0,4.4,1.4,5.1,4.4h0.9L494.7,14.1L494.7,14.1z"/>
<path class="st1" d="M403.1,14.1l0.2,7.1h-0.9c-0.9-4.5-2-5.3-7.9-5.3V37c0,2.5,1.3,3.6,3.6,3.6v1h-11.1v-1c2.3,0,3.6-1.1,3.6-3.6
	V15.9c-5.9,0-7.1,0.7-7.9,5.3h-0.9l0.2-7.1H403.1L403.1,14.1z"/>
<path class="st1" d="M424.2,15.1v-1h8.4v1c-1.2,0-3.1,1.3-3.9,2.6c-0.9,1.5-6.8,11.3-6.8,11.3v8c0,2.7,1,3.6,3.9,3.6v1h-11.6v-1
	c2.9,0,3.8-0.9,3.8-3.6v-7.6c0,0-6.5-10.3-7.3-11.6c-0.8-1.3-2.4-2.7-3.9-2.7v-1h10.8v1c-1.5,0-2.6,0.7-2.6,1.5
	c0,0.5,0.3,1.1,0.4,1.4c0.2,0.3,5.5,9.1,5.5,9.1s5.3-9.2,5.4-9.4c0.1-0.3,0.2-0.6,0.2-0.9C426.7,16,426.3,15.1,424.2,15.1
	L424.2,15.1z"/>
<path class="st1" d="M359.3,13.5l0.8,9.1h-1c-1.4-4.5-3.6-7.2-6.9-7.2c-2.4,0-3.7,1.6-3.7,3.7c0,2.4,1.8,3.8,4,5.3
	c2.2,1.5,3.7,2.5,4.4,3c2,1.4,4,4,4,6.9c0,4.5-3.4,7.8-7.8,7.8c-2.7,0-4.4-1.4-5.8-1.4c-0.7,0-1.1,0.8-1.3,1.4h-0.9l-1.1-9.1h1
	c1.7,4.7,4.1,7.4,7.6,7.4c2.6,0,4.5-1.8,4.5-4.6c0-2.6-1.4-3.9-3-5c-1.8-1.3-4.1-2.8-5.4-3.8c-2.1-1.4-3.4-3.4-3.4-6.6
	c0-3.8,2.5-6.9,6.8-6.9c1.9,0,3.9,1.2,5.1,1.2c0.9,0,1.2-0.6,1.3-1.2H359.3L359.3,13.5z"/>
<path class="st1" d="M374.4,18.6c0-2.5,1.3-3.6,3.6-3.6v-1h-11v1c2.3,0,3.6,1.1,3.6,3.6V37c0,2.5-1.3,3.6-3.6,3.6v1h11v-1
	c-2.3,0-3.6-1.1-3.6-3.6V18.6L374.4,18.6z"/>
<path class="st1" d="M311.5,34.4c-1.2,2.9-2.8,5.3-7.1,5.3c-0.9,0-2.9,0-4.3,0c-1.6,0-2.3-0.6-2.3-1.9c0-0.5,0-5,0-9.8
	c1.1,0,4.3,0,5.9,0c2.3,0,3.5,1.3,3.8,3.7h0.9v-9.5h-1c-0.1,2.6-1.5,3.9-3.6,3.9c-1.8,0-5.1,0-6.1,0c0-4.5,0-8.7,0-9.2
	c0-1,0.6-1.2,1.5-1.2c0.9,0,2.8,0,5.3,0c3.3,0,4.4,1.4,5.1,4.4h0.9l-0.2-6.2h-19.7v1c2.3,0,3.3,1.1,3.3,3.6v18.3
	c0,2.5-1,3.6-3.3,3.6v1h20.2l1.8-7.1H311.5L311.5,34.4z"/>
<path class="st1" d="M323.4,27.2V18c0-1.9,0.4-2.4,2.5-2.4c4.6,0,6.3,2.3,6.3,5.7c0,4.2-3.2,5.9-7.9,5.9
	C324,27.2,323.7,27.2,323.4,27.2L323.4,27.2z M337.6,39.3c-0.6-0.8-6.7-9.1-8.1-11c4.9-1,6.6-3.5,6.6-7.1c0-4.3-3.2-7.1-9.1-7.1
	c-0.7,0-11,0-11,0v1c2.3,0,3.4,1.1,3.4,3.6v18.3c0,2.5-1.1,3.6-3.4,3.6v1h10.6v-1c-2.3,0-3.4-1.1-3.4-3.6v-8.1c0.7,0,1.4,0,2.1-0.1
	l8.9,12.7h6v-0.9C339.4,40.6,338.3,40.1,337.6,39.3L337.6,39.3z"/>
<path class="st1" d="M253.4,18.6c0-2.5,1.3-3.6,3.6-3.6v-1h-11v1c2.3,0,3.6,1.1,3.6,3.6v18.3c0,2.5-1.3,3.6-3.6,3.6v1h11v-1
	c-2.3,0-3.6-1.1-3.6-3.6V18.6L253.4,18.6z"/>
<path class="st1" d="M271.5,15.1v-1h-10.1v1c1.2,0,2.5,0.8,3.4,2.9c0.9,2.1,9.9,24,9.9,24h0.6c0,0,7.9-22.1,8.6-24
	c0.7-1.9,1.9-2.9,3.1-2.9v-1h-7.8v1c1.7,0,2.6,0.9,2.6,2.1c0,0.4-0.1,0.7-0.2,1.1c-0.1,0.4-5.8,16.2-5.8,16.2S269.2,18.5,269,18
	c-0.2-0.4-0.2-0.8-0.2-1.2C268.8,15.7,269.7,15.1,271.5,15.1L271.5,15.1z"/>
<path class="st1" d="M179.4,6.1c3,0,4.6,1.5,4.6,5.8c0,4.3,0,9.9,0,17c0,8.6,4.7,13.1,12.9,13.1c7.1,0,12.5-4.3,12.5-12.6
	c0-7.6,0-15.7,0-18.5c0-2.9,0.9-4.8,4.3-4.8v-1h-10.8v1c3.1,0,4.3,1.4,4.4,5.1c0.1,3.7,0.3,13.4,0.3,19.2c0,5.8-4.1,9.4-9.8,9.4
	c-5.4,0-9.7-3.2-9.7-10c0-6.8,0-16,0-19c0-2.8,1.1-4.7,4.3-4.7v-1h-12.9V6.1L179.4,6.1z"/>
<path class="st1" d="M231.4,14.1v1c2.1,0,3.4,1.6,3.4,4.1c0,1.7,0,9.6,0,14.4l-14.3-19.6h-6.2v1c1.2,0,2.2,0.6,2.7,1.2
	c0.1,0.1,0.3,0.5,0.8,1.1c0,3,0,16,0,18.4c0,3.1-1.1,4.8-3.6,4.8v1h8.8v-1c-2.1,0-3.4-1.4-3.4-3.9c0-2,0-12.8,0-16.8
	c5.2,7,16.4,22.2,16.4,22.2h0.6c0,0,0-19.3,0-22.1c0-3.5,1.4-4.8,3.6-4.8v-1H231.4L231.4,14.1z"/>
<path class="st0" d="M262.8,97c7.4,0,10.7-4.4,10.7-10.6c0-6.2-3.4-10.6-10.7-10.6h-3V97H262.8L262.8,97z M253,69.8h10.2
	c10.2,0,17.5,6.8,17.5,16.6c0,9.8-7.2,16.6-17.5,16.6H253V69.8L253,69.8z"/>
<path class="st0" d="M286.8,82.2h6.6l-0.1,3.8c1.5-3.4,3.9-4.2,6.1-4.2c1.4,0,2.4,0.4,3.2,0.8l-2.1,6c-0.8-0.4-1.6-0.6-2.5-0.6
	c-3,0-4.6,1.4-4.6,5.8v9.2h-6.6V82.2L286.8,82.2z"/>
<path class="st0" d="M308.6,82.2h6.6V103h-6.6V82.2L308.6,82.2z M307.7,74.6c0-2.4,2-4.1,4.2-4.1c2.2,0,4.1,1.7,4.1,4.1
	c0,2.4-1.9,4.1-4.1,4.1C309.7,78.7,307.7,77,307.7,74.6L307.7,74.6z"/>
<path class="st0" d="M320.9,82.2h7.3l2.9,6.2c1,2.1,1.7,5.5,1.7,5.5s0.7-3.4,1.6-5.5l2.8-6.2h6.7l-11.1,21.2h-0.6L320.9,82.2
	L320.9,82.2z"/>
<path class="st0" d="M363.2,90.8c-0.3-2.3-1.8-3.7-4.3-3.7c-2.6,0-4.3,1.2-4.9,3.7H363.2L363.2,90.8z M359.5,97.9
	c2.4,0,4.2-0.9,5.2-1.7l3.8,4c-2,1.8-4.5,3.1-8.9,3.1c-7.4,0-12.2-4.5-12.2-10.9c0-6.3,5-10.8,11.5-10.8c7.5,0,11.5,5.6,11,12.8
	h-15.7C354.8,96.7,356.5,97.9,359.5,97.9L359.5,97.9z"/>
<path class="st0" d="M376.8,82.2h6.6l-0.1,3.4c1.3-2.5,3.7-3.9,6.6-3.9c4.5,0,7.8,3.3,7.8,9.2v12H391V91.4c0-2.3-1.1-3.7-3.5-3.7
	c-2.6,0-4.2,1.5-4.2,4.1V103h-6.6V82.2L376.8,82.2z"/>
<path class="st0" d="M420.3,95.2v-7.5h-3.1v-5.5h3.1V71.4h6.5v10.8h5.3v5.5h-5.3v7.7c0,2.1,0.7,2.5,1.7,2.5c1.1,0,1.9-0.6,2.3-0.9
	l2.5,4.6c-1,0.8-2.8,1.9-5.8,1.9C423.3,103.5,420.3,101.4,420.3,95.2L420.3,95.2z"/>
<rect x="9.1" y="5.1" class="st2" width="741.6" height="98.4"/>
<path class="st0" d="M454.3,92.6c0-3.1-1.8-5.2-4.7-5.2c-2.9,0-4.7,2.1-4.7,5.2c0,3.1,1.8,5.2,4.7,5.2
	C452.5,97.8,454.3,95.7,454.3,92.6L454.3,92.6z M438.1,92.6c0-6.3,5-10.9,11.5-10.9c6.4,0,11.4,4.5,11.4,10.9
	c0,6.3-5,10.8-11.4,10.8C443.2,103.4,438.1,98.9,438.1,92.6L438.1,92.6z"/>
<path class="st0" d="M491.8,97c7.4,0,10.7-4.4,10.7-10.6c0-6.2-3.4-10.6-10.7-10.6h-3V97H491.8L491.8,97z M482,69.8h10.2
	c10.2,0,17.5,6.8,17.5,16.6c0,9.8-7.2,16.6-17.5,16.6H482V69.8L482,69.8z"/>
<path class="st0" d="M517.2,82.2h6.6V103h-6.6V82.2L517.2,82.2z M516.3,74.6c0-2.4,1.9-4.1,4.2-4.1c2.2,0,4.1,1.7,4.1,4.1
	c0,2.4-1.9,4.1-4.1,4.1C518.2,78.7,516.3,77,516.3,74.6L516.3,74.6z"/>
<path class="st0" d="M530.1,99.4l3.9-3.4c1.4,1.4,3.2,2.2,5.2,2.2c2.1,0,2.8-0.4,2.8-1.3c0-1.1-1.3-1.1-4.7-2c-2.8-0.7-6-2.3-6-6.6
	c0-4.7,3.6-6.6,8-6.6c3.4,0,5.9,1.1,7.6,2.9l-3.5,3.8c-1-0.8-2.4-1.6-4-1.6c-1.5,0-2.2,0.4-2.2,1.2c0,1.2,1.3,1.3,4.1,1.9
	c3,0.7,6.8,2.1,6.8,6.5c0,3.8-2,6.9-8.5,6.9C534.7,103.4,531.9,101.6,530.1,99.4L530.1,99.4z"/>
<path class="st0" d="M553.8,92.5c0-6.3,4.9-10.8,11.4-10.8c4.1,0,6.6,1.5,8.7,4.1l-4.7,3.8c-0.8-1.3-2.4-2.2-4-2.2
	c-3,0-4.6,2.1-4.6,5c0,3,1.7,5.2,4.6,5.2c2.1,0,3.2-1,4.2-1.9l4.4,3.9c-2,2.3-4.5,3.8-8.6,3.8C558.7,103.4,553.8,98.9,553.8,92.5
	L553.8,92.5z"/>
<path class="st0" d="M595.2,92.6c0-3.1-1.8-5.2-4.7-5.2s-4.7,2.1-4.7,5.2c0,3.1,1.8,5.2,4.7,5.2S595.2,95.7,595.2,92.6L595.2,92.6z
	 M579,92.6c0-6.3,5-10.9,11.5-10.9c6.4,0,11.4,4.5,11.4,10.9c0,6.3-5,10.8-11.4,10.8C584.1,103.4,579,98.9,579,92.6L579,92.6z"/>
<path class="st0" d="M605.4,82.2h7.3l2.9,6.2c1,2.1,1.7,5.5,1.7,5.5s0.7-3.4,1.6-5.5l2.8-6.2h6.7l-11.1,21.2h-0.6L605.4,82.2
	L605.4,82.2z"/>
<path class="st0" d="M647.8,90.8c-0.3-2.3-1.8-3.7-4.3-3.7c-2.6,0-4.3,1.2-4.9,3.7H647.8L647.8,90.8z M644,97.9
	c2.4,0,4.2-0.9,5.2-1.7l3.8,4c-2,1.8-4.5,3.1-8.9,3.1c-7.4,0-12.2-4.5-12.2-10.9c0-6.3,5-10.8,11.5-10.8c7.5,0,11.5,5.6,11,12.8
	h-15.7C639.3,96.7,641.1,97.9,644,97.9L644,97.9z"/>
<path class="st0" d="M661.3,82.2h6.6l-0.1,3.8c1.5-3.4,3.9-4.2,6.1-4.2c1.4,0,2.4,0.4,3.2,0.8l-2.1,6c-0.8-0.4-1.6-0.6-2.5-0.6
	c-3,0-4.6,1.4-4.6,5.8v9.2h-6.6V82.2L661.3,82.2z"/>
<path class="st0" d="M688.7,81.7c0.3,0.1,0.5,0.2,0.6,0.4c0.1,0.2,0.2,0.4,0.2,0.7c0,0.2-0.1,0.5-0.2,0.7c-0.1,0.2-0.3,0.4-0.6,0.5
	c-0.3,0.1-0.5,0.1-0.8,0.1h-1.1v-2.5h1.1C688.2,81.6,688.4,81.6,688.7,81.7L688.7,81.7z M687.8,85.3c0.4,0,0.8,0.1,1,0.2
	c0.2,0.1,0.4,0.3,0.5,0.5c0.1,0.2,0.2,0.5,0.2,1c0,0.7,0.1,1,0.1,1.2h1.7c-0.1-0.2-0.1-0.6-0.1-1c0-0.5,0-0.8-0.1-1
	c-0.1-0.3-0.2-0.6-0.3-0.8c-0.1-0.2-0.3-0.4-0.5-0.5c-0.2-0.1-0.5-0.2-0.9-0.3c0.4,0,0.7-0.1,0.9-0.2c0.3-0.2,0.6-0.4,0.8-0.7
	c0.2-0.3,0.3-0.6,0.3-1c0-0.4-0.1-0.8-0.3-1.1c-0.2-0.3-0.4-0.5-0.7-0.7c-0.3-0.2-0.6-0.3-1.1-0.4c-0.3-0.1-0.8-0.1-1.4-0.1h-2.8
	v7.8h1.7v-2.9H687.8L687.8,85.3z M694.4,81.4c-0.3-0.7-0.8-1.4-1.4-2c-0.6-0.6-1.3-1.1-2.2-1.5c-0.9-0.4-1.8-0.6-2.9-0.6
	c-1.1,0-2.1,0.2-3.1,0.7c-0.7,0.3-1.3,0.8-1.9,1.4c-0.6,0.6-1.1,1.3-1.5,2.2c-0.4,0.9-0.6,1.8-0.6,2.8c0,1.2,0.3,2.4,0.9,3.5
	c0.6,1.1,1.5,2,2.6,2.6c1.1,0.6,2.3,0.9,3.5,0.9c1.1,0,2.1-0.2,3.1-0.7c0.7-0.4,1.4-0.9,2-1.5c0.6-0.6,1.1-1.4,1.4-2.2
	c0.3-0.9,0.5-1.7,0.5-2.6C695.1,83.3,694.8,82.3,694.4,81.4L694.4,81.4z M690.2,78.7c0.7,0.3,1.3,0.7,1.9,1.2
	c0.5,0.5,0.9,1.1,1.2,1.7c0.4,0.8,0.6,1.7,0.6,2.6c0,1-0.3,2-0.8,3c-0.5,0.9-1.3,1.7-2.2,2.2c-0.9,0.5-1.9,0.8-2.9,0.8
	c-1,0-2-0.3-2.9-0.8c-0.9-0.5-1.7-1.3-2.2-2.2c-0.5-0.9-0.8-1.9-0.8-3c0-0.9,0.2-1.7,0.5-2.4c0.3-0.7,0.8-1.3,1.3-1.9
	c0.5-0.5,1.1-0.9,1.7-1.2c0.8-0.4,1.6-0.5,2.4-0.5C688.8,78.3,689.5,78.4,690.2,78.7L690.2,78.7z"/>
</svg>
